<svg width="16" height="16" viewBox="0 0 16 16" fill="none" xmlns="http://www.w3.org/2000/svg">
<path d="M3.53027 2.66309C3.66862 3.03681 3.96319 3.33137 4.33691 3.46973L4.41797 3.5L4.33691 3.53027C4.00969 3.65141 3.74301 3.89223 3.58887 4.20117L3.53027 4.33691L3.5 4.41797L3.46973 4.33691C3.33137 3.96319 3.03681 3.66862 2.66309 3.53027L2.58105 3.5L2.66309 3.46973C3.03681 3.33138 3.33138 3.03681 3.46973 2.66309L3.5 2.58105L3.53027 2.66309Z" stroke="#222325" stroke-width="1.5"/>
<path d="M10.1094 3.06045L13.0625 5.53003M2.51563 10.4692L10.8346 2.06948C11.7303 1.19559 13.1825 1.19559 14.0782 2.06948C14.9739 2.94337 14.9739 4.36022 14.0782 5.23411L5.46875 13.3504L1.25 14.5852L2.51563 10.4692Z" stroke="#222325" stroke-width="1.5" stroke-linecap="round" stroke-linejoin="round"/>
</svg>
