<svg width="43" height="20" viewBox="0 0 43 20" fill="none" xmlns="http://www.w3.org/2000/svg">
<path d="M0 4C0 1.79086 1.79086 0 4 0H39C41.2091 0 43 1.79086 43 4V16C43 18.2091 41.2091 20 39 20H4C1.79086 20 0 18.2091 0 16V4Z" fill="#E4E5E7"/>
<path d="M12.9323 8.582C13.8703 8.862 14.5143 9.786 14.5143 11.06C14.5143 12.95 13.1423 14 10.9163 14H7.09427V3.92H11.0563C12.8483 3.92 14.3323 4.55 14.3323 6.454C14.3323 7.546 13.7583 8.232 12.9323 8.582ZM11.0563 5.334H8.80227V7.952H11.0563C11.9943 7.952 12.6243 7.518 12.6243 6.622C12.6243 5.684 11.9103 5.334 11.0563 5.334ZM8.80227 12.53H10.8603C12.0083 12.53 12.7503 11.956 12.7503 10.906C12.7503 9.744 11.8543 9.352 10.9023 9.352H8.80227V12.53ZM19.4604 6.454C21.5184 6.454 22.9324 7.868 22.9184 10.178C22.9184 10.332 22.9184 10.458 22.8904 10.626H17.4584C17.5564 11.998 18.3964 12.852 19.4744 12.852C20.2864 12.852 20.9024 12.46 21.0984 11.718H22.8204C22.4844 13.468 21.1544 14.21 19.4744 14.21C17.3884 14.21 15.8064 12.712 15.8064 10.346C15.8064 7.994 17.3744 6.454 19.4604 6.454ZM17.5424 9.408H21.1124C21.0564 8.386 20.3844 7.798 19.5024 7.798C18.5644 7.798 17.8084 8.316 17.5424 9.408ZM27.9572 12.67C28.1532 12.67 28.5452 12.628 28.8252 12.544V13.902C28.4752 14 28.0832 14.07 27.6632 14.07C26.1792 14.07 25.1432 13.454 25.1432 11.564V8.008H23.7152V6.664H25.1432V5.082L26.8372 4.228V6.664H28.6432V8.008H26.8372V11.564C26.8372 12.348 27.2992 12.67 27.9572 12.67ZM32.9874 6.454C34.5274 6.454 36.0114 7.098 36.0114 9.17V14H34.3734V13.02C33.9254 13.692 33.3514 14.14 32.1194 14.14C30.9434 14.14 29.8374 13.412 29.8374 12.096C29.8374 10.234 31.3634 9.604 33.2114 9.408L34.3874 9.282V9.03C34.3874 8.176 33.7154 7.77 32.9594 7.77C32.1894 7.77 31.5174 8.246 31.4334 8.974H29.8234C29.9494 7.322 31.3214 6.454 32.9874 6.454ZM32.5534 12.824C33.5614 12.824 34.3734 12.166 34.3734 11.004V10.486L33.1974 10.64C32.2174 10.766 31.5034 11.2 31.5034 11.942C31.5034 12.446 31.9094 12.824 32.5534 12.824Z" fill="#222325"/>
</svg>
