<svg width="16" height="16" viewBox="0 0 16 16" fill="none" xmlns="http://www.w3.org/2000/svg">
<g clip-path="url(#clip0_1408_2476)">
<path d="M4.31946 14.75L3.09219 14.75C2.3466 14.75 1.74218 14.1456 1.74219 13.4L1.74228 2.59999C1.74229 1.85441 2.3467 1.25 3.09228 1.25H11.8672C12.6128 1.25 13.2172 1.85442 13.2172 2.6V3.49426M10.0015 5.75683L10.4716 7.02722C10.9024 8.1915 11.8203 9.10945 12.9846 9.54027L14.255 10.0104L12.9846 10.4805C11.8203 10.9113 10.9024 11.8292 10.4716 12.9935L10.0015 14.2639L9.53139 12.9935C9.10057 11.8292 8.18262 10.9113 7.01834 10.4805L5.74795 10.0104L7.01834 9.54027C8.18262 9.10945 9.10057 8.1915 9.53139 7.02722L10.0015 5.75683Z" stroke="#222325" stroke-width="1.5" stroke-linecap="round" stroke-linejoin="round"/>
</g>
<defs>
<clipPath id="clip0_1408_2476">
<rect width="16" height="16" fill="white"/>
</clipPath>
</defs>
</svg>
