<svg width="24" height="24" viewBox="0 0 24 24" fill="none" xmlns="http://www.w3.org/2000/svg">
<path d="M6.4831 22.125L4.64219 22.125C3.5238 22.125 2.61718 21.2184 2.61719 20.1L2.61733 3.89998C2.61734 2.78161 3.52395 1.875 4.64233 1.875H17.8047C18.9231 1.875 19.8297 2.78162 19.8297 3.9V5.24139M15.0061 8.63524L15.7113 10.5408C16.3575 12.2872 17.7344 13.6642 19.4808 14.3104L21.3864 15.0155L19.4808 15.7207C17.7344 16.3669 16.3575 17.7438 15.7113 19.4903L15.0061 21.3958L14.301 19.4903C13.6548 17.7438 12.2778 16.3669 10.5314 15.7207L8.62583 15.0155L10.5314 14.3104C12.2778 13.6642 13.6548 12.2872 14.301 10.5408L15.0061 8.63524Z" stroke="#222325" stroke-width="1.5" stroke-linecap="round" stroke-linejoin="round"/>
</svg>
