<svg width="16" height="16" viewBox="0 0 16 16" fill="none" xmlns="http://www.w3.org/2000/svg">
<g clip-path="url(#clip0_1408_2468)">
<path d="M5.75 1.25H1.94231C1.55996 1.25 1.25 1.55996 1.25 1.94231V5.75C1.25 6.13236 1.55996 6.44231 1.94231 6.44231H5.75C6.13236 6.44231 6.44231 6.13236 6.44231 5.75V1.94231C6.44231 1.55996 6.13236 1.25 5.75 1.25Z" stroke="#222325" stroke-width="1.5" stroke-linejoin="round"/>
<path d="M14.0577 1.25H10.25C9.86764 1.25 9.55769 1.55996 9.55769 1.94231V5.75C9.55769 6.13236 9.86764 6.44231 10.25 6.44231H14.0577C14.4401 6.44231 14.75 6.13236 14.75 5.75V1.94231C14.75 1.55996 14.4401 1.25 14.0577 1.25Z" stroke="#222325" stroke-width="1.5" stroke-linejoin="round"/>
<path d="M5.75 9.55769H1.94231C1.55996 9.55769 1.25 9.86764 1.25 10.25V14.0577C1.25 14.4401 1.55996 14.75 1.94231 14.75H5.75C6.13236 14.75 6.44231 14.4401 6.44231 14.0577V10.25C6.44231 9.86764 6.13236 9.55769 5.75 9.55769Z" stroke="#222325" stroke-width="1.5" stroke-linejoin="round"/>
<path d="M14.0577 9.55769H10.25C9.86764 9.55769 9.55769 9.86764 9.55769 10.25V14.0577C9.55769 14.4401 9.86764 14.75 10.25 14.75H14.0577C14.4401 14.75 14.75 14.4401 14.75 14.0577V10.25C14.75 9.86764 14.4401 9.55769 14.0577 9.55769Z" stroke="#222325" stroke-width="1.5" stroke-linejoin="round"/>
</g>
<defs>
<clipPath id="clip0_1408_2468">
<rect width="16" height="16" fill="white"/>
</clipPath>
</defs>
</svg>
