<svg width="24" height="24" viewBox="0 0 24 24" fill="none" xmlns="http://www.w3.org/2000/svg">
<path fill-rule="evenodd" clip-rule="evenodd" d="M2.22692 3.22692C4.86281 0.591027 9.13669 0.591027 11.7726 3.22692C11.8505 3.30485 11.9261 3.38429 11.9992 3.46509C12.0723 3.38438 12.1479 3.30496 12.2259 3.22692C14.8618 0.591027 19.1357 0.591027 21.7716 3.22692C24.4075 5.86281 24.4075 10.1367 21.7716 12.7726L12.5286 22.0156C12.3879 22.1562 12.1971 22.2353 11.9982 22.2353C11.7993 22.2352 11.6085 22.1562 11.4679 22.0155L2.22692 12.7726C2.2269 12.7726 2.22688 12.7725 2.22686 12.7725C-0.408973 10.1366 -0.408954 5.86279 2.22692 3.22692ZM10.7119 4.28758C8.66181 2.23747 5.33769 2.23747 3.28758 4.28758C1.23747 6.33769 1.23747 9.66181 3.28758 11.7119L3.28764 11.712L11.9983 20.4245L20.7109 11.7119C22.761 9.66181 22.761 6.33769 20.7109 4.28758C18.6608 2.23747 15.3367 2.23747 13.2866 4.28758C13.0345 4.53967 12.8149 4.81161 12.6242 5.09895C12.4852 5.30836 12.2506 5.43425 11.9993 5.43425C11.7479 5.43425 11.5133 5.30836 11.3743 5.09895C11.1837 4.81168 10.9631 4.53873 10.7119 4.28758Z" fill="#222325"/>
</svg>
