<svg width="140" height="34" viewBox="0 0 140 34" fill="none" xmlns="http://www.w3.org/2000/svg">
<path d="M81.7862 13.1117H78.6293C76.5971 13.1117 75.5088 14.6592 75.5088 17.2363V26.5544H69.5223V13.1117H66.9823C64.95 13.1117 63.8618 14.6592 63.8618 17.2363V26.5544H57.8753V8.13963H63.8618V10.9393C64.841 8.76575 66.1837 8.13963 68.1796 8.13963H75.5088V10.9393C76.488 8.76575 77.8307 8.13963 79.8266 8.13963H81.7862V13.1117ZM56.5689 18.7838H44.0857C44.4117 20.8466 45.6817 22.0251 47.823 22.0251C49.4191 22.0251 50.5448 21.3621 50.9072 20.1836L56.2054 21.6942C54.899 24.8986 51.6694 26.8508 47.823 26.8508C41.3276 26.8508 38.3525 21.7311 38.3525 17.3482C38.3525 13.0391 40.9652 7.88251 47.4595 7.88251C54.3537 7.88251 56.6392 13.1129 56.6392 16.9804C56.6404 17.8267 56.6041 18.379 56.5689 18.7838ZM50.763 15.2115C50.6175 13.6283 49.4929 12.1547 47.4607 12.1547C45.5738 12.1547 44.4492 13.0022 44.0857 15.2115H50.763ZM27.9027 26.5556H33.1646L39.7316 8.13963H33.7087L30.5155 18.8576L27.2496 8.13963H21.263L27.9027 26.5556ZM3.37497 26.5556H9.32515V13.1117H14.9857V26.5556H20.9007V8.13963H9.32632V6.99808C9.32632 5.74583 10.1976 4.9721 11.5755 4.9721H14.9868V0H10.5952C6.27735 0 3.37497 2.689 3.37497 6.63026V8.14082H0V13.1129H3.37497V26.5556Z" fill="#222325"/>
<path d="M87.1357 34V8.15269H90.6245V10.8905C91.7033 9.06569 93.8974 7.85986 96.4152 7.85986C101.882 7.85986 105.011 11.8749 105.011 17.3517C105.011 22.8273 101.738 26.8436 96.2358 26.8436C93.8259 26.8436 91.6682 25.7116 90.6256 23.9594V33.9988H87.1357V34ZM101.486 17.3529C101.486 13.52 99.2566 10.9643 95.9109 10.9643C92.5301 10.9643 90.336 13.52 90.336 17.3529C90.336 21.1859 92.5301 23.7415 95.9109 23.7415C99.2566 23.7415 101.486 21.1859 101.486 17.3529Z" fill="#222325"/>
<path d="M116.957 11.2192H114.332C111.024 11.2192 109.944 14.2129 109.944 18.228V26.5521H106.456V8.15283H109.945V11.6941C110.772 9.24796 112.21 8.15283 114.764 8.15283H116.959V11.2192H116.957Z" fill="#222325"/>
<path d="M116.108 17.3527C116.108 11.8402 120.029 7.86084 125.459 7.86084C130.89 7.86084 134.774 11.8402 134.774 17.3527C134.774 22.8652 130.89 26.8446 125.459 26.8446C120.029 26.8434 116.108 22.864 116.108 17.3527ZM131.213 17.3527C131.213 13.5924 128.875 10.9641 125.458 10.9641C122.006 10.9641 119.667 13.5924 119.667 17.3527C119.667 21.113 122.005 23.7413 125.458 23.7413C128.875 23.7413 131.213 21.1118 131.213 17.3527Z" fill="#222325"/>
<path d="M139.238 24.5198V24.5627C139.238 25.8138 138.239 26.8291 137.005 26.8291C135.773 26.8291 134.772 25.8149 134.772 24.5627V24.5198C134.772 23.2688 135.772 22.2534 137.005 22.2534C138.238 22.2534 139.238 23.2688 139.238 24.5198Z" fill="#222325"/>
</svg>
