<svg width="120" height="36" viewBox="0 0 120 36" fill="none" xmlns="http://www.w3.org/2000/svg">
<path d="M105.793 17.4132H110.042V10.8096H107.406C104.721 10.8096 102.915 11.6412 101.596 14.5272V10.8096H91.734C89.0487 10.8096 87.2426 11.6412 85.9239 14.5272V10.8096H77.8681V35.2668H85.9239V22.8912C85.9239 19.4676 87.3875 17.4132 90.1219 17.4132H93.539V35.2668H101.595V22.8912C101.595 19.4676 103.058 17.4132 105.793 17.4132Z" fill="#222325"/>
<path fill-rule="evenodd" clip-rule="evenodd" d="M59.3155 24.9456H76.1098C76.159 24.408 76.2081 23.6736 76.2069 22.5492C76.2069 17.4132 73.1311 10.4676 63.8549 10.4676C55.1163 10.4676 51.6011 17.316 51.6011 23.0388C51.6011 28.8588 55.605 35.658 64.3435 35.658C69.5188 35.658 73.8641 33.0648 75.6212 28.8096L68.4936 26.8044C68.0049 28.3692 66.491 29.25 64.3435 29.25C61.463 29.25 59.7551 27.6852 59.3155 24.9456ZM63.8561 16.1412C66.5892 16.1412 68.1031 18.0972 68.2984 20.2008H59.3155C59.8042 17.2656 61.3169 16.1412 63.8561 16.1412Z" fill="#222325"/>
<path d="M44.6208 35.2668H37.5423L28.6074 10.8096H36.6632L41.0576 25.044L45.3538 10.8108H53.4575L44.6208 35.2668Z" fill="#222325"/>
<path d="M12.5472 35.2668H4.54053V17.4132H0V10.8096H4.54053V8.8044C4.54053 3.5712 8.44627 0 14.2564 0H20.1635V6.6036H15.5739C13.7186 6.6036 12.5472 7.6308 12.5472 9.294V10.8096H28.1211V35.2668H20.1635V17.4132H12.5472V35.2668Z" fill="#222325"/>
<path d="M120 31.0104C120 33.7661 117.77 36 115.02 36C112.269 36 110.04 33.7661 110.04 31.0104C110.04 28.2547 112.269 26.0208 115.02 26.0208C117.77 26.0208 120 28.2547 120 31.0104Z" fill="#222325"/>
</svg>
