<svg width="16" height="16" viewBox="0 0 16 16" fill="none" xmlns="http://www.w3.org/2000/svg">
<path d="M4.9625 13.4H1.25C1.25 10.7905 3.36546 8.675 5.975 8.675H7.325C8.18563 8.675 8.99252 8.90511 9.6875 9.30714M12.725 14.075L14.75 12.05L12.725 10.025M14.075 12.05H10.025C9.27942 12.05 8.675 12.6544 8.675 13.4C8.675 14.1456 9.27942 14.75 10.025 14.75H10.0685M9.35 3.95C9.35 5.44117 8.14114 6.65 6.65 6.65C5.15883 6.65 3.95 5.44117 3.95 3.95C3.95 2.45883 5.15883 1.25 6.65 1.25C8.14114 1.25 9.35 2.45883 9.35 3.95Z" stroke="#222325" stroke-width="1.5" stroke-linecap="round" stroke-linejoin="round"/>
</svg>
