<svg width="24" height="24" viewBox="0 0 24 24" fill="none" xmlns="http://www.w3.org/2000/svg">
<path d="M3.90012 2.3803L3.89815 5.92427M3.89815 5.92427C5.74547 3.46487 8.68664 1.87402 11.9994 1.87402C17.5916 1.87402 22.125 6.40741 22.125 11.9996C22.125 16.0075 19.7964 19.4716 16.4183 21.1127M3.89815 5.92427H7.22863M11.6335 22.1252C12.1015 22.1252 12.5621 22.0944 13.0132 22.0347M2.14101 8.96195C2.02834 9.35407 1.93993 9.75038 1.875 10.1489M1.90965 13.7712C1.98012 14.1661 2.07192 14.5572 2.18428 14.9424M3.71238 18.1725C3.95129 18.5214 4.21027 18.8573 4.48845 19.1779M7.31679 21.4941C7.67135 21.6939 8.04039 21.8747 8.42318 22.0347M10.9611 8.96195V13.0628L13.0116 15.1133" stroke="#222325" stroke-width="1.5" stroke-linecap="round" stroke-linejoin="round"/>
</svg>
