<svg width="86" height="20" viewBox="0 0 86 20" fill="none" xmlns="http://www.w3.org/2000/svg">
<path d="M1.24076 14V3.92H2.94876V12.432H7.58276V14H1.24076ZM12.1304 6.454C14.1884 6.454 15.6024 7.868 15.5884 10.178C15.5884 10.332 15.5884 10.458 15.5604 10.626H10.1284C10.2264 11.998 11.0664 12.852 12.1444 12.852C12.9564 12.852 13.5724 12.46 13.7684 11.718H15.4904C15.1544 13.468 13.8244 14.21 12.1444 14.21C10.0584 14.21 8.47635 12.712 8.47635 10.346C8.47635 7.994 10.0444 6.454 12.1304 6.454ZM10.2124 9.408H13.7824C13.7264 8.386 13.0544 7.798 12.1724 7.798C11.2344 7.798 10.4784 8.316 10.2124 9.408ZM19.9594 12.068L21.9194 6.664H23.6974L20.9394 14H18.9794L16.1654 6.664H17.9854L19.9594 12.068ZM27.894 6.454C29.952 6.454 31.366 7.868 31.352 10.178C31.352 10.332 31.352 10.458 31.324 10.626H25.892C25.99 11.998 26.83 12.852 27.908 12.852C28.72 12.852 29.336 12.46 29.532 11.718H31.254C30.918 13.468 29.588 14.21 27.908 14.21C25.822 14.21 24.24 12.712 24.24 10.346C24.24 7.994 25.808 6.454 27.894 6.454ZM25.976 9.408H29.546C29.49 8.386 28.818 7.798 27.936 7.798C26.998 7.798 26.242 8.316 25.976 9.408ZM32.9159 14V3.57H34.6099V14H32.9159ZM45.3285 10.094L42.9065 12.474H47.2605V14H40.4285V12.642L43.5505 9.548C44.5585 8.554 45.3285 7.77 45.3285 6.804C45.3285 5.824 44.6845 5.278 43.8025 5.278C42.6685 5.278 42.0245 6.216 42.0245 7.574H40.3445C40.2465 5.306 41.6325 3.71 43.8725 3.71C45.6225 3.71 47.1205 4.774 47.1205 6.818C47.1205 8.218 46.1545 9.282 45.3285 10.094Z" fill="#222325"/>
<path d="M56.839 5.21849C56.9189 5.11002 57.0811 5.11002 57.161 5.21849L59.1033 7.85429C59.1153 7.87046 59.1295 7.88474 59.1457 7.89665L61.7815 9.83899C61.89 9.91893 61.89 10.0811 61.7815 10.161L59.1457 12.1033C59.1295 12.1153 59.1153 12.1295 59.1033 12.1457L57.161 14.7815C57.0811 14.89 56.9189 14.89 56.839 14.7815L54.8967 12.1457C54.8847 12.1295 54.8705 12.1153 54.8543 12.1033L52.2185 10.161C52.11 10.0811 52.11 9.91893 52.2185 9.83899L54.8543 7.89665C54.8705 7.88474 54.8847 7.87046 54.8967 7.85429L56.839 5.21849Z" fill="#222325"/>
<path d="M68.839 5.21849C68.9189 5.11002 69.0811 5.11002 69.161 5.21849L71.1033 7.85429C71.1153 7.87046 71.1295 7.88474 71.1457 7.89665L73.7815 9.83899C73.89 9.91893 73.89 10.0811 73.7815 10.161L71.1457 12.1033C71.1295 12.1153 71.1153 12.1295 71.1033 12.1457L69.161 14.7815C69.0811 14.89 68.9189 14.89 68.839 14.7815L66.8967 12.1457C66.8847 12.1295 66.8705 12.1153 66.8543 12.1033L64.2185 10.161C64.11 10.0811 64.11 9.91893 64.2185 9.83899L66.8543 7.89665C66.8705 7.88474 66.8847 7.87046 66.8967 7.85429L68.839 5.21849Z" fill="#222325"/>
<path d="M80.839 5.21849C80.9189 5.11002 81.0811 5.11002 81.161 5.21849L83.1033 7.85429C83.1153 7.87046 83.1295 7.88474 83.1457 7.89665L85.7815 9.83899C85.89 9.91893 85.89 10.0811 85.7815 10.161L83.1457 12.1033C83.1295 12.1153 83.1153 12.1295 83.1033 12.1457L81.161 14.7815C81.0811 14.89 80.9189 14.89 80.839 14.7815L78.8967 12.1457C78.8847 12.1295 78.8705 12.1153 78.8543 12.1033L76.2185 10.161C76.11 10.0811 76.11 9.91893 76.2185 9.83899L78.8543 7.89665C78.8705 7.88474 78.8847 7.87046 78.8967 7.85429L80.839 5.21849Z" fill="#E4E5E7"/>
</svg>
