<svg width="16" height="16" viewBox="0 0 16 16" fill="none" xmlns="http://www.w3.org/2000/svg">
<path d="M13.6283 8.43324L8.00625 14.0014L2.38416 8.43324C2.01333 8.07239 1.72123 7.63867 1.52626 7.15938C1.3313 6.6801 1.23767 6.16563 1.2513 5.64839C1.26492 5.13114 1.3855 4.62232 1.60543 4.15396C1.82536 3.68561 2.13989 3.26786 2.5292 2.92703C2.91851 2.5862 3.37418 2.32967 3.8675 2.1736C4.36082 2.01752 4.88112 1.96528 5.39563 2.02017C5.91013 2.07505 6.4077 2.23587 6.857 2.4925C7.3063 2.74913 7.69759 3.09601 8.00625 3.5113C8.31624 3.09903 8.70799 2.75518 9.15698 2.50127C9.60597 2.24737 10.1025 2.08887 10.6156 2.0357C11.1287 1.98253 11.6472 2.03583 12.1387 2.19227C12.6302 2.34871 13.0841 2.60492 13.4721 2.94486C13.86 3.2848 14.1736 3.70116 14.3933 4.16787C14.6129 4.63459 14.7338 5.14161 14.7485 5.65721C14.7632 6.17282 14.6712 6.6859 14.4785 7.16434C14.2857 7.64279 13.9963 8.0763 13.6283 8.43774" stroke="#222325" stroke-width="1.5" stroke-linecap="round" stroke-linejoin="round"/>
</svg>
