<svg width="16" height="16" viewBox="0 0 16 16" fill="none" xmlns="http://www.w3.org/2000/svg">
<g clip-path="url(#clip0_16115_7071)">
<path d="M15.5607 2.38375L13.6163 0.439375C13.3232 0.146563 12.9395 0 12.5557 0C12.1716 0 11.7879 0.146563 11.4951 0.439375L0.439453 11.495C-0.146484 12.0809 -0.146484 13.0306 0.439453 13.6163L2.38383 15.5606C2.67664 15.8534 3.0607 16 3.44445 16C3.8282 16 4.21227 15.8534 4.50508 15.5606L15.5604 4.505C16.1466 3.91938 16.1466 2.96969 15.5607 2.38375ZM3.44477 14.5L1.50008 12.5556L8.49695 5.55781L10.442 7.50281L3.44477 14.5ZM11.5026 6.44187L9.55758 4.49687L12.5541 1.5H12.5557L14.5001 3.44438L11.5026 6.44187ZM13.5001 9L12.667 10.6666L11.0001 11.5L12.667 12.3334L13.5001 14L14.3332 12.3334L16.0001 11.5L14.3332 10.6666L13.5001 9ZM7.00008 3L7.50008 2L8.50008 1.5L7.50008 1L7.00008 0L6.50008 1L5.50008 1.5L6.50008 2L7.00008 3ZM2.50008 5L3.3332 3.33344L5.00008 2.5L3.3332 1.66656L2.50008 0L1.66695 1.66656L7.81119e-05 2.5L1.66695 3.33344L2.50008 5Z" fill="#222325"/>
</g>
<defs>
<clipPath id="clip0_16115_7071">
<rect width="16" height="16" fill="white"/>
</clipPath>
</defs>
</svg>
