<svg width="130" height="64" viewBox="0 0 130 64" fill="none" xmlns="http://www.w3.org/2000/svg">
<path d="M129.997 42.8535V45.8516H121.96V63.5205H118.578V42.8535H121.96V45.0921H123.233C124.466 43.0134 124.984 42.8535 129.997 42.8535Z" fill="#222325"/>
<path d="M105.845 61.0013C109.824 61.0013 112.449 57.9232 112.449 53.2062C112.449 48.4492 109.824 45.3712 105.845 45.3712C101.866 45.3712 99.2405 48.4492 99.2405 53.2062C99.2405 57.9232 101.866 61.0013 105.845 61.0013ZM105.845 42.373C109.824 42.373 115.831 44.8915 115.831 53.2062C115.831 61.481 109.824 63.9994 105.845 63.9994C101.866 63.9994 95.8984 61.481 95.8984 53.2062C95.8984 44.8915 101.866 42.373 105.845 42.373Z" fill="#222325"/>
<path d="M94.582 45.8504H89.4495V58.6823C89.4495 59.6817 89.4495 60.5212 91.7174 60.5212H94.5422V63.5193H90.0066C86.943 63.5193 86.0677 61.1608 86.0677 59.3219V45.8504H83.2031V42.8523H86.0677V36.6562H89.4495V45.0909H90.7625C91.1604 44.0916 91.6378 42.8523 93.0303 42.8523H94.582V45.8504Z" fill="#222325"/>
<path d="M79.4966 55.9645H82.958C82.3214 60.8014 78.3428 63.9994 73.6879 63.9994C67.9189 63.9994 64.2188 59.8021 64.2188 53.2062C64.2188 45.9308 68.5554 42.373 73.6879 42.373C78.2235 42.373 82.0827 44.2918 82.7591 49.5285H79.2579C78.7407 46.9302 76.8707 45.3712 73.6879 45.3712C69.9877 45.3712 67.5608 48.4492 67.5608 53.2062C67.5608 57.9232 69.7092 61.0013 73.6879 61.0013C77.2686 61.0013 79.1783 58.4829 79.4966 55.9645Z" fill="#222325"/>
<path d="M47.4699 51.2075H59.4456C59.0477 48.4492 57.3767 45.3712 53.4379 45.3712C50.0162 45.3712 47.9872 47.6097 47.4699 51.2075ZM62.907 52.9264V54.2056H47.3904C47.6291 58.363 49.7377 61.0013 53.4379 61.0013C55.8648 61.0013 58.4907 59.6821 59.0477 56.9638H62.5091C61.7532 61.401 57.7348 63.9994 53.4379 63.9994C47.6689 63.9994 43.9688 59.802 43.9688 53.1662C43.9688 46.5704 47.6689 42.373 53.4379 42.373C59.0079 42.373 62.907 46.4105 62.907 52.9264Z" fill="#222325"/>
<path d="M42.2018 42.8523H43.7932V45.8904H38.6608V63.5193H35.279V45.8904H31.5391V42.8523H35.279V40.8536C35.279 39.0148 36.1543 36.6562 39.2178 36.6562H42.719V39.6544H40.292C38.6608 39.6544 38.6608 40.4938 38.6608 41.4932V45.1309H39.9339C40.3318 44.1315 40.8092 42.8523 42.2018 42.8523Z" fill="#222325"/>
<path d="M29.9596 42.8523H31.551V45.8904H26.4186V63.5193H23.0368V45.8904H19.2969V42.8523H23.0368V40.8536C23.0368 39.0148 23.9121 36.6562 26.9756 36.6562H30.4768V39.6544H28.0498C26.4186 39.6544 26.4186 40.4938 26.4186 41.4932V45.1309H27.6918C28.0896 44.1315 28.567 42.8523 29.9596 42.8523Z" fill="#222325"/>
<path d="M3.50118 51.2075H15.4768C15.079 48.4492 13.4079 45.3712 9.4691 45.3712C6.0475 45.3712 4.0184 47.6097 3.50118 51.2075ZM18.9382 52.9264V54.2056H3.42161C3.66033 58.363 5.76899 61.0013 9.4691 61.0013C11.8961 61.0013 14.5219 59.6821 15.079 56.9638H18.5403C17.7844 61.401 13.766 63.9994 9.4691 63.9994C3.70011 63.9994 0 59.802 0 53.1662C0 46.5704 3.70011 42.373 9.4691 42.373C15.0392 42.373 18.9382 46.4105 18.9382 52.9264Z" fill="#222325"/>
<path d="M98.9297 33.5398V31.541H118.823V33.5398H98.9297Z" fill="#BBCE00"/>
<path d="M97.1763 20.9879H100.638C100.001 25.8249 96.0225 29.0228 91.3675 29.0228C85.5985 29.0228 81.8984 24.8255 81.8984 18.2296C81.8984 10.9542 86.2351 7.39648 91.3675 7.39648C95.9032 7.39648 99.7624 9.31527 100.439 14.552H96.9376C96.4204 11.9536 94.5504 10.3946 91.3675 10.3946C87.6674 10.3946 85.2405 13.4727 85.2405 18.2296C85.2405 22.9467 87.3889 26.0247 91.3675 26.0247C94.9483 26.0247 96.858 23.5063 97.1763 20.9879Z" fill="#222325"/>
<path d="M79.124 0V4.15738H75.7422V0H79.124ZM75.7422 28.542V7.87503H79.124V28.542H75.7422Z" fill="#222325"/>
<path d="M66.9871 22.2271H68.2602V13.7125H66.9871C66.1516 12.0735 65.0376 10.4346 61.8149 10.4346C58.7513 10.4346 56.2846 12.5532 56.2846 17.9898C56.2846 23.4264 58.7513 25.5051 61.8149 25.5051C65.0376 25.5051 66.1516 23.8661 66.9871 22.2271ZM68.2602 7.87618H71.6421V26.3845C71.8012 33.2602 69.056 36.9378 62.3719 36.9378C58.5126 36.9378 54.1759 35.3388 53.977 30.8617H57.3588C57.4782 33.3001 60.3826 34.2196 62.531 34.2196C66.9871 34.2196 68.2602 31.0216 68.2602 26.3845V24.7056H66.9871C66.3903 26.5044 64.202 28.5431 61.2977 28.5431C56.7223 28.5431 52.6641 25.0653 52.6641 17.9898C52.6641 10.8743 56.7223 7.39648 61.2977 7.39648C64.202 7.39648 66.3903 9.4352 66.9871 11.2341H68.2602V7.87618Z" fill="#222325"/>
<path d="M45.3829 22.6668H46.6163V18.8293H41.3247C38.1418 18.8293 35.874 19.5888 35.874 22.347C35.874 24.1459 36.988 25.9848 39.7731 25.9848C43.9904 25.9848 44.985 23.4663 45.3829 22.6668ZM42.2796 7.39648C45.9797 7.39648 49.9981 8.83558 49.9981 13.0729V28.5431H46.6163V25.1853H45.3829C44.2689 27.9435 41.7624 29.0228 39.1365 29.0228C36.5106 29.0228 32.4922 27.7037 32.4922 22.347C32.4922 18.1897 35.6751 16.3508 40.8871 16.3508H46.6163V13.8324C46.6163 11.1541 44.2291 10.3946 42.1204 10.3946C39.2558 10.3946 37.1472 11.274 36.9482 14.3121H33.5664C33.8051 9.19535 37.6644 7.39648 42.2796 7.39648Z" fill="#222325"/>
<path d="M29.8804 15.1116V28.5431H26.5384V14.7119C26.5384 12.913 26.3394 10.4346 22.6393 10.4346C19.7349 10.4346 18.8994 12.3134 18.5414 13.1129H17.2284V28.5431H13.8864V14.7119C13.8864 12.913 13.6874 10.4346 9.98733 10.4346C7.08294 10.4346 6.24743 12.3134 5.88936 13.1129H4.57641V28.5431H1.23438V7.91616H4.57641V10.6344H5.88936C6.52593 8.87555 8.39588 7.39648 10.5841 7.39648C13.0509 7.39648 15.2391 8.23596 16.3929 10.6344H17.6661C18.7403 8.91553 20.5307 7.39648 23.2361 7.39648C26.8964 7.39648 29.8804 9.23533 29.8804 15.1116Z" fill="#222325"/>
</svg>
