<svg width="16" height="16" viewBox="0 0 16 16" fill="none" xmlns="http://www.w3.org/2000/svg">
<path d="M13.2246 6.11523V6.11621C13.917 6.17431 14.4887 6.42322 14.8887 6.82715C15.2899 7.23259 15.4999 7.77562 15.5 8.38184V12.9424C15.5 13.1002 15.3733 13.2246 15.2217 13.2246C15.0953 13.2246 14.9857 13.1379 14.9531 13.0166L14.7676 12.3262L14.1826 12.7373C13.6537 13.1094 13.0325 13.3206 12.3721 13.334H12.1416C11.3032 13.2557 10.6256 12.6869 10.4209 11.9014L10.3848 11.7295C10.2447 10.8758 10.6963 9.81169 11.8828 9.4541L11.8848 9.45312C12.3842 9.30092 13.222 9.21613 14.4395 9.22461L14.9434 9.22852V8.38184C14.9433 7.91185 14.7829 7.51619 14.4951 7.22559C14.2058 6.93353 13.7673 6.72719 13.1797 6.67773H13.1787C12.3051 6.60559 11.4445 7.0505 10.9619 7.83398C10.8805 7.96622 10.7096 8.00526 10.5801 7.9248C10.4492 7.84344 10.407 7.66876 10.4893 7.53516C11.0779 6.57968 12.1356 6.02538 13.2246 6.11523ZM4.41113 3.5C4.52443 3.5 4.62761 3.56995 4.66992 3.67871L8.30273 13.0625C8.35958 13.2095 8.28609 13.373 8.14355 13.4287C8.00232 13.4836 7.84068 13.4141 7.78418 13.2686L6.7666 10.6387L6.64258 10.3193H2.17969L2.05566 10.6387L1.03809 13.2686C0.98156 13.4141 0.819956 13.4836 0.678711 13.4287C0.536189 13.373 0.462712 13.2095 0.519531 13.0625L4.15234 3.67871C4.19464 3.56995 4.29784 3.50003 4.41113 3.5ZM14.2705 9.78906C13.3275 9.78908 12.5035 9.84951 12.042 9.9873L12.0381 9.98828C11.1908 10.2481 10.8184 10.9854 10.9346 11.6348V11.6357C11.0684 12.4083 11.7907 12.7898 12.3672 12.7686L12.3682 12.7695C13.2346 12.7569 14.3171 12.2615 14.8965 11.0244L14.9434 10.9229V9.78906H14.2705ZM3.94531 5.75879L2.66113 9.0752L2.39746 9.75586H6.4248L6.16113 9.0752L4.87793 5.75879L4.41113 4.55469L3.94531 5.75879Z" stroke="#222325"/>
</svg>
