<svg width="307" height="28" viewBox="0 0 307 28" fill="none" xmlns="http://www.w3.org/2000/svg">
<path fill-rule="evenodd" clip-rule="evenodd" d="M9.5 6.5C8.94772 6.5 8.5 6.94772 8.5 7.5V20.5C8.5 21.0523 8.94772 21.5 9.5 21.5H15C17.4843 21.5 19.5 19.4843 19.5 17C19.5 15.4131 18.6775 14.0174 17.4358 13.2161C18.0962 12.5027 18.5 11.5483 18.5 10.5C18.5 8.29172 16.7083 6.5 14.5 6.5H9.5ZM14.5 12.5C15.6037 12.5 16.5 11.6037 16.5 10.5C16.5 9.39628 15.6037 8.5 14.5 8.5H10.5V12.5H14.5ZM10.5 14.5V19.5H15C16.3797 19.5 17.5 18.3797 17.5 17C17.5 15.6203 16.3797 14.5 15 14.5H10.5Z" fill="#74767E"/>
<path d="M49.25 6.99963C49.25 6.58542 49.5858 6.24963 50 6.24963H54C54.4142 6.24963 54.75 6.58542 54.75 6.99963C54.75 7.41385 54.4142 7.74963 54 7.74963H52.5658L48.9944 20.2496H50C50.4142 20.2496 50.75 20.5854 50.75 20.9996C50.75 21.4138 50.4142 21.7496 50 21.7496H48.0243C48.0084 21.7501 47.9924 21.7501 47.9764 21.7496H46C45.5858 21.7496 45.25 21.4138 45.25 20.9996C45.25 20.5854 45.5858 20.2496 46 20.2496H47.4343L51.0058 7.74963H50C49.5858 7.74963 49.25 7.41385 49.25 6.99963Z" fill="#74767E"/>
<path d="M81.4998 7.25V13.1346C81.4998 15.6199 83.5145 17.6346 85.9998 17.6346C88.4851 17.6346 90.4998 15.6199 90.4998 13.1346V7.25M79.769 20.75H92.2306" stroke="#74767E" stroke-width="1.5" stroke-linecap="round" stroke-linejoin="round"/>
<g clip-path="url(#clip0_6_353)">
<path d="M115.25 14H128.75M125.857 8.69642C125.638 8.27209 125.137 7.89765 124.436 7.63474C123.735 7.37183 122.876 7.23613 122 7.24999H121.036C120.141 7.24999 119.282 7.60557 118.649 8.2385C118.016 8.87144 117.661 9.72988 117.661 10.625C117.661 11.5201 118.016 12.3785 118.649 13.0115C119.282 13.6444 120.141 14 121.036 14H122.964C123.859 14 124.718 14.3556 125.351 14.9885C125.984 15.6214 126.339 16.4799 126.339 17.375C126.339 18.2701 125.984 19.1285 125.351 19.7615C124.718 20.3944 123.859 20.75 122.964 20.75H121.518C120.642 20.7638 119.783 20.6281 119.082 20.3652C118.38 20.1023 117.879 19.7279 117.661 19.3036" stroke="#74767E" stroke-width="1.5" stroke-linecap="round" stroke-linejoin="round"/>
</g>
<path fill-rule="evenodd" clip-rule="evenodd" d="M144 28L144 0L145 4.37114e-08L145 28L144 28Z" fill="#E4E5E7"/>
<g clip-path="url(#clip1_6_353)">
<path fill-rule="evenodd" clip-rule="evenodd" d="M159 9C159 7.89543 159.895 7 161 7C162.105 7 163 7.89543 163 9C163 10.1046 162.105 11 161 11C159.895 11 159 10.1046 159 9ZM161 8.39535C160.666 8.39535 160.395 8.66606 160.395 9C160.395 9.33394 160.666 9.60465 161 9.60465C161.334 9.60465 161.605 9.33394 161.605 9C161.605 8.66606 161.334 8.39535 161 8.39535Z" fill="#74767E"/>
<path d="M165.6 7.60001C165.186 7.60001 164.85 7.93579 164.85 8.35001C164.85 8.76422 165.186 9.10001 165.6 9.10001H174.254C174.668 9.10001 175.004 8.76422 175.004 8.35001C175.004 7.93579 174.668 7.60001 174.254 7.60001H165.6Z" fill="#74767E"/>
<path d="M165.6 11.4999C165.186 11.4999 164.85 11.8357 164.85 12.2499C164.85 12.6641 165.186 12.9999 165.6 12.9999H174.254C174.668 12.9999 175.004 12.6641 175.004 12.2499C175.004 11.8357 174.668 11.4999 174.254 11.4999H165.6Z" fill="#74767E"/>
<path d="M164.85 16.0499C164.85 15.6357 165.186 15.2999 165.6 15.2999H174.254C174.668 15.2999 175.004 15.6357 175.004 16.0499C175.004 16.4641 174.668 16.7999 174.254 16.7999H165.6C165.186 16.7999 164.85 16.4641 164.85 16.0499Z" fill="#74767E"/>
<path d="M165.6 19.1999C165.186 19.1999 164.85 19.5357 164.85 19.9499C164.85 20.3641 165.186 20.6999 165.6 20.6999H174.254C174.668 20.6999 175.004 20.3641 175.004 19.9499C175.004 19.5357 174.668 19.1999 174.254 19.1999H165.6Z" fill="#74767E"/>
<path fill-rule="evenodd" clip-rule="evenodd" d="M161 14C159.895 14 159 14.8954 159 16C159 17.1046 159.895 18 161 18C162.105 18 163 17.1046 163 16C163 14.8954 162.105 14 161 14ZM160.395 16C160.395 15.6661 160.666 15.3953 161 15.3953C161.334 15.3953 161.605 15.6661 161.605 16C161.605 16.3339 161.334 16.6047 161 16.6047C160.666 16.6047 160.395 16.3339 160.395 16Z" fill="#74767E"/>
</g>
<path d="M196.5 11.3C196.5 11.8 196.8 12.1 197.2 12.1C197.7 12.1 198 11.8 198 11.3V7.50002C198 7.20002 197.8 7.00002 197.6 6.90002C197.3 6.70002 197 6.80002 196.8 6.90002L195.6 7.70002C195.3 7.90002 195.2 8.30002 195.4 8.70002C195.6 9.00002 196.1 9.10002 196.5 8.90002V11.3Z" fill="#74767E"/>
<path d="M201.3 9.10004H209.9C210.4 9.10004 210.8 8.81879 210.8 8.35004C210.8 7.88129 210.4 7.60004 210 7.60004H201.3C200.8 7.60004 200.5 7.88129 200.5 8.35004C200.5 8.81879 200.9 9.10004 201.3 9.10004Z" fill="#74767E"/>
<path d="M201.3 13H209.9C210.4 13 210.8 12.7188 210.8 12.25C210.8 11.7813 210.4 11.5 210 11.5H201.3C200.8 11.5 200.5 11.7813 200.5 12.25C200.5 12.7188 200.9 13 201.3 13Z" fill="#74767E"/>
<path d="M209.9 16.8H201.3C200.9 16.8 200.5 16.5188 200.5 16.05C200.5 15.5813 200.8 15.3 201.3 15.3H210C210.4 15.3 210.8 15.5813 210.8 16.05C210.8 16.5188 210.4 16.8 209.9 16.8Z" fill="#74767E"/>
<path d="M201.3 20.7H209.9C210.4 20.7 210.8 20.4188 210.8 19.95C210.8 19.4813 210.4 19.2 210 19.2H201.3C200.8 19.2 200.5 19.4813 200.5 19.95C200.5 20.4188 200.9 20.7 201.3 20.7Z" fill="#74767E"/>
<path d="M198.4 18.8H196C195.7 18.8 195.4 18.6 195.3 18.4C195.2 18.2 195.2 17.8 195.4 17.6C195.9 17 196.6 16.3 196.6 16.3C196.6 16.3 197.5 15.4999 197.4 15.1561C197.362 15.0286 197.229 14.8544 197 14.9999C196.908 15.0581 196.826 15.1767 196.737 15.3061C196.546 15.5814 196.322 15.9056 195.9 15.8C195.5 15.7 195.2 15.3 195.3 14.9C195.5 14 196.3 13.4 197.3 13.5C198 13.5 198.6 13.9 198.8 14.4C198.9 14.6 199 14.8 199 15.2C199 15.9297 198.584 16.4098 198.056 17.0197C198.005 17.0784 197.953 17.1385 197.9 17.2L197.8 17.3H198.4C198.8 17.3 199.2 17.6 199.2 18.1C199.2 18.6 198.8 18.8 198.4 18.8Z" fill="#74767E"/>
<path fill-rule="evenodd" clip-rule="evenodd" d="M225 28L225 0L226 4.37114e-08L226 28L225 28Z" fill="#E4E5E7"/>
<path d="M254.75 8.9375H245.469M254.75 14H248.844M254.75 19.0625H245.469M241.25 10.625L244.625 14L241.25 17.375" stroke="#74767E" stroke-width="1.5" stroke-linecap="round" stroke-linejoin="round"/>
<path d="M290.75 8.9375H284.844M290.75 14H283.156M290.75 19.0625H284.844M280.625 10.625L277.25 14L280.625 17.375" stroke="#B5B6BA" stroke-width="1.5" stroke-linecap="round" stroke-linejoin="round"/>
<defs>
<clipPath id="clip0_6_353">
<rect width="16" height="16" fill="white" transform="translate(114 6)"/>
</clipPath>
<clipPath id="clip1_6_353">
<rect width="16" height="16" fill="white" transform="translate(159 6)"/>
</clipPath>
</defs>
</svg>
