<svg width="16" height="16" viewBox="0 0 16 16" fill="none" xmlns="http://www.w3.org/2000/svg">
<path d="M7.36092 1.92942C7.62702 1.40731 8.37297 1.40731 8.63908 1.92942L10.2081 5.0082C10.3122 5.21255 10.5078 5.35478 10.7343 5.39086L14.1448 5.93401C14.7229 6.02608 14.9532 6.73443 14.5398 7.14886L12.0983 9.59694C11.9365 9.75911 11.862 9.98878 11.8977 10.2151L12.4358 13.6317C12.5269 14.2103 11.9236 14.6482 11.4017 14.3824L8.32556 12.8154C8.121 12.7111 7.879 12.7111 7.67444 12.8154L4.59831 14.3824C4.07639 14.6482 3.47308 14.2103 3.56421 13.6317L4.10237 10.2151C4.138 9.98878 4.06344 9.75911 3.9017 9.59694L1.46014 7.14886C1.04681 6.73443 1.27714 6.02608 1.85519 5.93401L5.26568 5.39086C5.49219 5.35478 5.68778 5.21255 5.79192 5.0082L7.36092 1.92942Z" stroke="#222325" stroke-width="1.5" stroke-linejoin="round"/>
</svg>
