<svg width="119" height="20" viewBox="0 0 119 20" fill="none" xmlns="http://www.w3.org/2000/svg">
<path d="M0 4C0 1.79086 1.79086 0 4 0H115C117.209 0 119 1.79086 119 4V16C119 18.2091 117.209 20 115 20H4C1.79086 20 0 18.2091 0 16V4Z" fill="#FFE0B3"/>
<path d="M14.5269 3.92V5.488H11.4889V14H9.76694V5.488H6.74294V3.92H14.5269ZM14.1687 10.346C14.1687 7.868 15.8347 6.454 17.8367 6.454C19.8527 6.454 21.4907 7.868 21.4907 10.346C21.4907 12.824 19.8527 14.21 17.8367 14.21C15.8347 14.21 14.1687 12.824 14.1687 10.346ZM15.8767 10.346C15.8767 11.998 16.8287 12.754 17.8367 12.754C18.8587 12.754 19.7827 11.998 19.7827 10.346C19.7827 8.694 18.8587 7.924 17.8367 7.924C16.8287 7.924 15.8767 8.694 15.8767 10.346ZM26.8577 6.454C28.7477 6.454 30.2457 7.91 30.2457 10.36C30.2457 12.852 28.7477 14.21 26.8577 14.21C25.9897 14.21 25.2057 13.748 24.7437 13.146V16.87H23.0497V6.664H24.7437V7.7C25.0657 7.098 25.8077 6.454 26.8577 6.454ZM26.6757 12.74C27.6977 12.74 28.5237 11.97 28.5237 10.388C28.5237 8.792 27.6977 7.91 26.6757 7.91C25.6397 7.91 24.7577 8.806 24.7577 10.346C24.7577 11.956 25.6397 12.74 26.6757 12.74ZM41.9466 9.156C42.9686 9.422 43.3746 10.164 43.4726 11.396L43.6826 14H41.9746L41.7366 11.69C41.5826 10.234 40.9666 9.982 39.6786 9.982H37.8306V14H36.1226V3.92H40.4346C42.3246 3.92 43.6826 4.858 43.6826 6.776C43.6826 8.19 42.8566 8.848 41.9466 9.156ZM37.8306 5.39V8.568H40.1546C41.2046 8.568 41.9326 8.12 41.9326 7C41.9326 5.88 41.2046 5.39 40.1966 5.39H37.8306ZM48.3165 6.454C49.8565 6.454 51.3405 7.098 51.3405 9.17V14H49.7025V13.02C49.2545 13.692 48.6805 14.14 47.4485 14.14C46.2725 14.14 45.1665 13.412 45.1665 12.096C45.1665 10.234 46.6925 9.604 48.5405 9.408L49.7165 9.282V9.03C49.7165 8.176 49.0445 7.77 48.2885 7.77C47.5185 7.77 46.8465 8.246 46.7625 8.974H45.1525C45.2785 7.322 46.6505 6.454 48.3165 6.454ZM47.8825 12.824C48.8905 12.824 49.7025 12.166 49.7025 11.004V10.486L48.5265 10.64C47.5465 10.766 46.8325 11.2 46.8325 11.942C46.8325 12.446 47.2385 12.824 47.8825 12.824ZM56.6984 12.67C56.8944 12.67 57.2864 12.628 57.5664 12.544V13.902C57.2164 14 56.8244 14.07 56.4044 14.07C54.9204 14.07 53.8844 13.454 53.8844 11.564V8.008H52.4564V6.664H53.8844V5.082L55.5784 4.228V6.664H57.3844V8.008H55.5784V11.564C55.5784 12.348 56.0404 12.67 56.6984 12.67ZM61.9966 6.454C64.0546 6.454 65.4686 7.868 65.4546 10.178C65.4546 10.332 65.4546 10.458 65.4266 10.626H59.9946C60.0926 11.998 60.9326 12.852 62.0106 12.852C62.8226 12.852 63.4386 12.46 63.6346 11.718H65.3566C65.0206 13.468 63.6906 14.21 62.0106 14.21C59.9246 14.21 58.3426 12.712 58.3426 10.346C58.3426 7.994 59.9106 6.454 61.9966 6.454ZM60.0786 9.408H63.6486C63.5926 8.386 62.9206 7.798 62.0386 7.798C61.1006 7.798 60.3446 8.316 60.0786 9.408ZM72.1434 7.518V3.57H73.8374V14H72.1434V12.978C71.8214 13.58 71.0794 14.21 70.0294 14.21C68.1394 14.21 66.6414 12.754 66.6414 10.304C66.6414 7.826 68.1534 6.454 70.0294 6.454C70.9114 6.454 71.6954 6.902 72.1434 7.518ZM70.2254 12.754C71.2474 12.754 72.1434 11.872 72.1434 10.332C72.1434 8.708 71.2474 7.924 70.2254 7.924C69.1894 7.924 68.3634 8.694 68.3634 10.29C68.3634 11.886 69.1894 12.754 70.2254 12.754Z" fill="#421300"/>
<path d="M83.839 5.21849C83.9189 5.11002 84.0811 5.11002 84.161 5.21849L86.1033 7.85429C86.1153 7.87046 86.1295 7.88474 86.1457 7.89665L88.7815 9.83899C88.89 9.91893 88.89 10.0811 88.7815 10.161L86.1457 12.1033C86.1295 12.1153 86.1153 12.1295 86.1033 12.1457L84.161 14.7815C84.0811 14.89 83.9189 14.89 83.839 14.7815L81.8967 12.1457C81.8847 12.1295 81.8705 12.1153 81.8543 12.1033L79.2185 10.161C79.11 10.0811 79.11 9.91893 79.2185 9.83899L81.8543 7.89665C81.8705 7.88474 81.8847 7.87046 81.8967 7.85429L83.839 5.21849Z" fill="#421300"/>
<path d="M95.839 5.21849C95.9189 5.11002 96.0811 5.11002 96.161 5.21849L98.1033 7.85429C98.1153 7.87046 98.1295 7.88474 98.1457 7.89665L100.782 9.83899C100.89 9.91893 100.89 10.0811 100.782 10.161L98.1457 12.1033C98.1295 12.1153 98.1153 12.1295 98.1033 12.1457L96.161 14.7815C96.0811 14.89 95.9189 14.89 95.839 14.7815L93.8967 12.1457C93.8847 12.1295 93.8705 12.1153 93.8543 12.1033L91.2185 10.161C91.11 10.0811 91.11 9.91893 91.2185 9.83899L93.8543 7.89665C93.8705 7.88474 93.8847 7.87046 93.8967 7.85429L95.839 5.21849Z" fill="#421300"/>
<path d="M107.839 5.21849C107.919 5.11002 108.081 5.11002 108.161 5.21849L110.103 7.85429C110.115 7.87046 110.13 7.88474 110.146 7.89665L112.782 9.83899C112.89 9.91893 112.89 10.0811 112.782 10.161L110.146 12.1033C110.13 12.1153 110.115 12.1295 110.103 12.1457L108.161 14.7815C108.081 14.89 107.919 14.89 107.839 14.7815L105.897 12.1457C105.885 12.1295 105.87 12.1153 105.854 12.1033L103.218 10.161C103.11 10.0811 103.11 9.91893 103.218 9.83899L105.854 7.89665C105.87 7.88474 105.885 7.87046 105.897 7.85429L107.839 5.21849Z" fill="#421300"/>
</svg>
