<svg width="85" height="20" viewBox="0 0 85 20" fill="none" xmlns="http://www.w3.org/2000/svg">
<path d="M0 4C0 1.79086 1.79086 0 4 0H81C83.2091 0 85 1.79086 85 4V16C85 18.2091 83.2091 20 81 20H4C1.79086 20 0 18.2091 0 16V4Z" fill="#D2D3FF"/>
<path d="M11.4231 11.928L14.1111 3.92H15.9731L12.3751 14H10.3871L6.83112 3.92H8.69312L11.4231 11.928ZM19.5425 6.454C21.6005 6.454 23.0145 7.868 23.0005 10.178C23.0005 10.332 23.0005 10.458 22.9725 10.626H17.5405C17.6385 11.998 18.4785 12.852 19.5565 12.852C20.3685 12.852 20.9845 12.46 21.1805 11.718H22.9025C22.5665 13.468 21.2365 14.21 19.5565 14.21C17.4705 14.21 15.8885 12.712 15.8885 10.346C15.8885 7.994 17.4565 6.454 19.5425 6.454ZM17.6245 9.408H21.1945C21.1385 8.386 20.4665 7.798 19.5845 7.798C18.6465 7.798 17.8905 8.316 17.6245 9.408ZM32.7993 12.67C33.0093 12.67 33.3873 12.628 33.6673 12.544V13.902C33.3313 14 32.9393 14.07 32.5053 14.07C31.0353 14.07 29.9853 13.454 29.9853 11.564V8.008H26.9193V11.564C26.9193 12.348 27.3813 12.67 28.0393 12.67C28.2353 12.67 28.6273 12.628 28.9073 12.544V13.902C28.5573 14 28.1653 14.07 27.7453 14.07C26.2613 14.07 25.2253 13.454 25.2253 11.564V8.008H23.7973V6.664H25.2253V5.082L26.9193 4.228V6.664H29.9853V5.082L31.6793 4.228V6.664H33.4853V8.008H31.6793V11.564C31.6793 12.348 32.1413 12.67 32.7993 12.67ZM38.0952 6.454C40.1532 6.454 41.5672 7.868 41.5532 10.178C41.5532 10.332 41.5532 10.458 41.5252 10.626H36.0932C36.1912 11.998 37.0312 12.852 38.1092 12.852C38.9212 12.852 39.5372 12.46 39.7332 11.718H41.4552C41.1192 13.468 39.7892 14.21 38.1092 14.21C36.0232 14.21 34.4412 12.712 34.4412 10.346C34.4412 7.994 36.0092 6.454 38.0952 6.454ZM36.1772 9.408H39.7472C39.6912 8.386 39.0192 7.798 38.1372 7.798C37.1992 7.798 36.4432 8.316 36.1772 9.408ZM48.242 7.518V3.57H49.936V14H48.242V12.978C47.92 13.58 47.178 14.21 46.128 14.21C44.238 14.21 42.74 12.754 42.74 10.304C42.74 7.826 44.252 6.454 46.128 6.454C47.01 6.454 47.794 6.902 48.242 7.518ZM46.324 12.754C47.346 12.754 48.242 11.872 48.242 10.332C48.242 8.708 47.346 7.924 46.324 7.924C45.288 7.924 44.462 8.694 44.462 10.29C44.462 11.886 45.288 12.754 46.324 12.754ZM60.727 3.92C62.617 3.92 64.017 4.858 64.017 6.93C64.017 9.002 62.617 9.926 60.643 9.926H57.857V14H56.149V3.92H60.727ZM57.857 8.512H60.461C61.497 8.512 62.267 8.036 62.267 6.972C62.267 5.866 61.497 5.39 60.489 5.39H57.857V8.512ZM68.9325 6.594C69.2965 6.594 69.5065 6.65 69.7445 6.734V8.4C69.4785 8.33 69.2405 8.274 68.8905 8.274C67.8685 8.274 67.0005 9.002 67.0005 10.514V14H65.3065V6.664H67.0005V7.966C67.2945 7.252 67.9805 6.594 68.9325 6.594ZM70.5623 10.346C70.5623 7.868 72.2283 6.454 74.2303 6.454C76.2463 6.454 77.8843 7.868 77.8843 10.346C77.8843 12.824 76.2463 14.21 74.2303 14.21C72.2283 14.21 70.5623 12.824 70.5623 10.346ZM72.2703 10.346C72.2703 11.998 73.2223 12.754 74.2303 12.754C75.2523 12.754 76.1763 11.998 76.1763 10.346C76.1763 8.694 75.2523 7.924 74.2303 7.924C73.2223 7.924 72.2703 8.694 72.2703 10.346Z" fill="#282773"/>
</svg>
