<svg width="85" height="24" viewBox="0 0 85 24" fill="none" xmlns="http://www.w3.org/2000/svg">
<rect x="0.4" y="0.4" width="84.0889" height="23.2" rx="4.94991" stroke="black" stroke-width="0.8"/>
<path d="M13.1773 15.544L16.1593 6.92H17.4893L13.8773 17H12.4353L8.85131 6.92H10.1813L13.1773 15.544ZM20.8686 9.538C22.8146 9.538 24.1446 10.938 24.1306 13.094C24.1306 13.234 24.1306 13.332 24.1026 13.472H18.4746C18.5026 15.096 19.4546 16.202 20.8266 16.202C21.7786 16.202 22.5486 15.74 22.7726 14.816H24.0046C23.6966 16.496 22.3806 17.21 20.8406 17.21C18.7266 17.21 17.2986 15.642 17.2986 13.416C17.2986 11.092 18.7266 9.538 20.8686 9.538ZM18.5586 12.562H22.8286C22.7586 11.274 21.9466 10.518 20.8966 10.518C19.7486 10.518 18.8246 11.19 18.5586 12.562ZM33.2577 16.034C33.4817 16.034 33.8597 15.992 34.1397 15.908V16.916C33.8177 17.014 33.4257 17.07 33.0757 17.07C31.7877 17.07 30.8217 16.51 30.8217 14.83V10.742H27.3497V14.802C27.3497 15.698 27.8537 16.034 28.5537 16.034C28.7777 16.034 29.1697 15.992 29.4357 15.908V16.916C29.1277 17.014 28.7357 17.07 28.3857 17.07C27.0977 17.07 26.1317 16.51 26.1317 14.83V10.742H24.7037V9.748H26.1317V7.928L27.3497 7.298V9.748H30.8217V7.928L32.0537 7.298V9.748H33.9157V10.742H32.0537V14.802C32.0537 15.698 32.5577 16.034 33.2577 16.034ZM38.2395 9.538C40.1855 9.538 41.5155 10.938 41.5015 13.094C41.5015 13.234 41.5015 13.332 41.4735 13.472H35.8455C35.8735 15.096 36.8255 16.202 38.1975 16.202C39.1495 16.202 39.9195 15.74 40.1435 14.816H41.3755C41.0675 16.496 39.7515 17.21 38.2115 17.21C36.0975 17.21 34.6695 15.642 34.6695 13.416C34.6695 11.092 36.0975 9.538 38.2395 9.538ZM35.9295 12.562H40.1995C40.1295 11.274 39.3175 10.518 38.2675 10.518C37.1195 10.518 36.1955 11.19 35.9295 12.562ZM48.1893 10.854V6.57H49.4073V17H48.1893V15.712C47.8813 16.384 47.0833 17.21 45.8373 17.21C43.9893 17.21 42.5893 15.754 42.5893 13.36C42.5893 10.882 44.0033 9.538 45.8373 9.538C46.8733 9.538 47.7553 10.14 48.1893 10.854ZM45.9493 16.16C47.1673 16.16 48.1753 15.068 48.1753 13.332C48.1753 11.568 47.1673 10.602 45.9493 10.602C44.7313 10.602 43.8213 11.54 43.8213 13.318C43.8213 15.096 44.7313 16.16 45.9493 16.16ZM59.4439 6.92C61.2639 6.92 62.5939 7.83 62.5939 9.804C62.5939 11.778 61.2639 12.688 59.3039 12.688H56.3919V17H55.1459V6.92H59.4439ZM56.3919 11.652H59.2339C60.4379 11.652 61.3339 11.092 61.3339 9.832C61.3339 8.53 60.4379 7.984 59.2759 7.984H56.3919V11.652ZM66.9798 9.678C67.3578 9.678 67.5818 9.734 67.8058 9.804V11.022C67.5538 10.952 67.2878 10.896 66.9518 10.896C65.8598 10.896 65.0058 11.806 65.0058 13.346V17H63.7878V9.748H65.0058V11.106C65.3278 10.364 65.9858 9.678 66.9798 9.678ZM68.3625 13.374C68.3625 10.896 69.9725 9.538 71.8625 9.538C73.7525 9.538 75.3485 10.896 75.3485 13.374C75.3485 15.866 73.7525 17.21 71.8625 17.21C69.9725 17.21 68.3625 15.866 68.3625 13.374ZM69.5805 13.374C69.5805 15.25 70.7145 16.16 71.8625 16.16C73.0385 16.16 74.1305 15.25 74.1305 13.374C74.1305 11.512 73.0385 10.602 71.8625 10.602C70.7145 10.602 69.5805 11.512 69.5805 13.374Z" fill="black"/>
</svg>
